<svg xmlns="http://www.w3.org/2000/svg" width="433.983" height="313.797" viewBox="0 0 433.983 313.797">
  <g id="bottomSheet" transform="translate(0 0)">
    <g id="Group_4140" data-name="Group 4140">
      <path id="Path_1424" data-name="Path 1424" d="M0,0S58.007,1.536,92.38,24.674,167.21,70.11,206.9,40.459,284.348-.13,315.739,0,0,0,0,0Z" transform="translate(375.729 54.697) rotate(180)" fill="#faefef"/>
      <path id="Path_5172" data-name="Path 5172" d="M35,0H393c19.33,0,35,14.288,35,31.914V224.307c0,9.2,7.038,25.915,0,31.914-6.049,5.159-25.76,0-35,0H35c-9.394,0-28.489,5.69-35,0-6.425-5.611,0-22.854,0-31.914V31.914C0,14.288,15.67,0,35,0Z" transform="translate(2.856 55.048)" fill="#faefef"/>
      <path id="Path_5171" data-name="Path 5171" d="M1.212,21.487a3.827,3.827,0,0,1-.694-.355,1.373,1.373,0,0,1-.195-1.955c.584-.635,1.193-1.227,1.8-1.837L8.6,10.865c.034-.034.068-.076.135-.152-.11-.093-.22-.186-.322-.279Q4.454,6.485.5,2.528A1.454,1.454,0,0,1,.213.7,1.41,1.41,0,0,1,2.3.3c.466.415.9.863,1.337,1.3.669.66,1.329,1.32,1.989,1.989L7.78,5.753,9.964,7.937c.635.635,1.278,1.261,1.887,1.913a1.387,1.387,0,0,1,0,1.811c-.491.525-1.007,1.033-1.515,1.54-.719.728-1.447,1.447-2.167,2.167-.66.66-1.329,1.32-1.989,1.989L4.022,19.515,2.473,21.064a1.957,1.957,0,0,1-.8.432C1.508,21.487,1.364,21.487,1.212,21.487Z" transform="matrix(-0.017, -1, 1, -0.017, 202.427, 27.348)" opacity="0.948"/>
    </g>
  </g>
</svg>
