<svg id="Component_2_1" data-name="Component 2 – 1" xmlns="http://www.w3.org/2000/svg" width="40" height="31.5" viewBox="0 0 40 31.5">
  <g id="Chat" transform="translate(-2 5.864)">
    <g id="Icon" transform="translate(13 1.636)" fill="none" stroke-miterlimit="10" opacity="0.787" style="mix-blend-mode: color-burn;isolation: isolate">
      <path d="M20.78,20.917C25.644,19.141,29,15.368,29,11,29,4.925,22.508,0,14.5,0S0,4.925,0,11,6.492,22,14.5,22a19.225,19.225,0,0,0,2.014-.105A24.116,24.116,0,0,0,24,24,8.509,8.509,0,0,1,20.78,20.917Z" stroke="none"/>
      <path d="M 18.24705696105957 20.50216293334961 L 17.87661170959473 19.84804153442383 L 20.09455108642578 19.03829002380371 C 22.19371032714844 18.27191162109375 23.95451164245605 17.09658050537109 25.18658065795898 15.63937091827393 C 26.37280082702637 14.23640060424805 26.99980163574219 12.63206100463867 26.99980163574219 10.99980068206787 C 26.99980163574219 8.702080726623535 25.77256011962891 6.505670547485352 23.54416084289551 4.815160751342773 C 21.1511402130127 2.999780654907227 17.93916130065918 2.000000715255737 14.49990081787109 2.000000715255737 C 11.06064128875732 2.000000715255737 7.848660945892334 2.999780654907227 5.45564079284668 4.815160751342773 C 3.227240800857544 6.505670547485352 2.000000715255737 8.702080726623535 2.000000715255737 10.99980068206787 C 2.000000715255737 13.29752063751221 3.227240800857544 15.49393081665039 5.45564079284668 17.18444061279297 C 7.848660945892334 18.99982070922852 11.06064128875732 19.99960136413574 14.49990081787109 19.99960136413574 C 15.10372066497803 19.99960136413574 15.71090126037598 19.96787071228027 16.3045711517334 19.90530014038086 L 16.90268135070801 19.84226036071777 L 17.43636131286621 20.11956024169922 C 17.69907569885254 20.25606727600098 17.97044944763184 20.38336563110352 18.24705696105957 20.50216293334961 M 23.9994010925293 24.00030136108398 C 23.9994010925293 24.00030136108398 19.74989128112793 23.57554054260254 16.51421165466309 21.8942813873291 C 15.85607051849365 21.96364974975586 15.18322086334229 21.99960136413574 14.49990081787109 21.99960136413574 C 6.491700649261475 21.99960136413574 8.178710686479462e-07 17.07480049133301 8.178710686479462e-07 10.99980068206787 C 8.178710686479462e-07 4.924800872802734 6.491700649261475 6.805419729971618e-07 14.49990081787109 6.805419729971618e-07 C 22.50810050964355 6.805419729971618e-07 28.99980163574219 4.924800872802734 28.99980163574219 10.99980068206787 C 28.99980163574219 15.36806106567383 25.64371109008789 19.14146995544434 20.78045082092285 20.91699981689453 C 21.94440078735352 22.97224998474121 23.9994010925293 24.00030136108398 23.9994010925293 24.00030136108398 Z" stroke="none" fill="#000"/>
    </g>
    <g id="Icon-2" data-name="Icon" transform="translate(2 -5.864)" fill="rgba(144,132,132,0.16)" stroke-miterlimit="10">
      <path d="M8.4,22.565C3.4,20.536,0,16.566,0,12,0,5.373,7.163,0,16,0S32,5.373,32,12,24.836,24,16,24a21.252,21.252,0,0,1-3.25-.248A23.676,23.676,0,0,1,5,26,8.375,8.375,0,0,0,8.4,22.565Z" stroke="none"/>
      <path d="M 10.63623332977295 22.54966735839844 C 11.03606128692627 22.38302421569824 11.42278480529785 22.20046997070312 11.78460025787354 22.00102043151855 L 12.38195037841797 21.67173004150391 L 13.05602073669434 21.77606010437012 C 14.01735019683838 21.92486000061035 15.00792026519775 22.00030136108398 16.00020027160645 22.00030136108398 C 19.84390068054199 22.00030136108398 23.43565940856934 20.8940601348877 26.11386108398438 18.88536071777344 C 28.62013053894043 17.00561141967773 30.00040054321289 14.56023025512695 30.00040054321289 11.99970054626465 C 30.00040054321289 9.439580917358398 28.62014961242676 6.994490623474121 26.11388969421387 5.114850521087646 C 23.43563079833984 3.106210470199585 19.8438606262207 2.000000476837158 16.00020027160645 2.000000476837158 C 12.15622043609619 2.000000476837158 8.564330101013184 3.106200456619263 5.886200428009033 5.114830493927002 C 3.38014030456543 6.994390487670898 2.000000238418579 9.43949031829834 2.000000238418579 11.99970054626465 C 2.000000238418579 15.58432006835938 4.742020130157471 18.92230033874512 9.156000137329102 20.71100997924805 L 11.13965034484863 21.51486968994141 L 10.63623332977295 22.54966735839844 M 5.000400066375732 26.00010108947754 C 5.000400066375732 26.00010108947754 7.290480136871338 24.85522079467773 8.404850006103516 22.56459999084473 C 3.399710178375244 20.53631973266602 2.716064386731887e-07 16.56587982177734 2.716064386731887e-07 11.99970054626465 C 2.716064386731887e-07 5.373000621795654 7.163100242614746 5.447387820822769e-07 16.00020027160645 5.447387820822769e-07 C 24.83640098571777 5.447387820822769e-07 32.00040054321289 5.373000621795654 32.00040054321289 11.99970054626465 C 32.00040054321289 18.62730026245117 24.83640098571777 24.00030136108398 16.00020027160645 24.00030136108398 C 14.88639068603516 24.00030136108398 13.79975032806396 23.91499137878418 12.7501106262207 23.75253105163574 C 9.486909866333008 25.55136108398438 5.000400066375732 26.00010108947754 5.000400066375732 26.00010108947754 Z" stroke="none" fill="rgba(0,0,0,0.89)"/>
    </g>
    <path id="Icon-3" data-name="Icon" d="M4.827.344a1.5,1.5,0,0,1,1.06-1.837A1.5,1.5,0,0,1,7.724-.432,1.5,1.5,0,0,1,6.664,1.4a1.5,1.5,0,0,1-.389.051A1.5,1.5,0,0,1,4.827.344Zm-3.675,0A1.5,1.5,0,0,1,2.213-1.493,1.5,1.5,0,0,1,4.05-.432,1.5,1.5,0,0,1,2.989,1.4a1.5,1.5,0,0,1-.389.051A1.5,1.5,0,0,1,1.152.344Z" transform="translate(5 4.636)" fill="#fff"/>
  </g>
</svg>
