<svg xmlns="http://www.w3.org/2000/svg" width="49" height="50.999" viewBox="0 0 49 50.999">
  <g id="Group_4142" data-name="Group 4142" transform="translate(-39 -852)">
    <g id="Group_4141" data-name="Group 4141">
      <g id="socialMedia" transform="translate(39 852)">
        <path id="Union_1" data-name="Union 1" d="M-125,112.5a8.5,8.5,0,0,1,.336-2.375l-18.628-7.907A8.461,8.461,0,0,1-148.5,104a8.5,8.5,0,0,1-8.5-8.5,8.5,8.5,0,0,1,8.5-8.5,8.476,8.476,0,0,1,6.242,2.731l17.344-10.014A8.576,8.576,0,0,1-125,78.5a8.5,8.5,0,0,1,8.5-8.5,8.5,8.5,0,0,1,8.5,8.5,8.5,8.5,0,0,1-8.5,8.5,8.478,8.478,0,0,1-6.262-2.752l-17.33,10.005A8.573,8.573,0,0,1-140,95.5a8.524,8.524,0,0,1-.222,1.939l18.935,8.037A8.462,8.462,0,0,1-116.5,104a8.5,8.5,0,0,1,8.5,8.5,8.5,8.5,0,0,1-8.5,8.5A8.5,8.5,0,0,1-125,112.5Z" transform="translate(157 -70)" fill="#333"/>
        <path id="Icon_awesome-instagram" data-name="Icon awesome-instagram" d="M4.979,4.7A2.591,2.591,0,1,0,7.534,7.291,2.569,2.569,0,0,0,4.979,4.7Zm0,4.276A1.685,1.685,0,1,1,6.64,7.291,1.676,1.676,0,0,1,4.979,8.976ZM8.235,4.594a.6.6,0,1,1-.6-.6A.6.6,0,0,1,8.235,4.594Zm1.692.613a3.015,3.015,0,0,0-.8-2.118,2.945,2.945,0,0,0-2.088-.816c-.823-.047-3.289-.047-4.111,0a2.941,2.941,0,0,0-2.088.814A3.025,3.025,0,0,0,.03,5.2c-.047.834-.047,3.335,0,4.17a3.015,3.015,0,0,0,.8,2.118,2.949,2.949,0,0,0,2.088.816c.823.047,3.289.047,4.111,0a2.926,2.926,0,0,0,2.088-.816,3.035,3.035,0,0,0,.8-2.118c.047-.834.047-3.333,0-4.168ZM8.864,10.27a1.694,1.694,0,0,1-.947.961,10.831,10.831,0,0,1-2.937.2,10.916,10.916,0,0,1-2.937-.2,1.694,1.694,0,0,1-.947-.961,11.293,11.293,0,0,1-.2-2.979,11.382,11.382,0,0,1,.2-2.979,1.694,1.694,0,0,1,.947-.961,10.831,10.831,0,0,1,2.937-.2,10.916,10.916,0,0,1,2.937.2,1.694,1.694,0,0,1,.947.961,11.293,11.293,0,0,1,.2,2.979A11.287,11.287,0,0,1,8.864,10.27Z" transform="translate(35.821 0.752)" fill="#fff8f8"/>
        <path id="Icon_ionic-logo-twitter" data-name="Icon ionic-logo-twitter" d="M10.876,5.524a3.6,3.6,0,0,1-1.115.344,2.161,2.161,0,0,0,.854-1.206,3.614,3.614,0,0,1-1.233.529A1.848,1.848,0,0,0,7.965,4.5,2.071,2.071,0,0,0,6.023,6.681a2.383,2.383,0,0,0,.05.5,5.33,5.33,0,0,1-4-2.28,2.389,2.389,0,0,0-.263,1.1,2.266,2.266,0,0,0,.866,1.816,1.742,1.742,0,0,1-.882-.272v.027A2.134,2.134,0,0,0,3.35,9.7a1.755,1.755,0,0,1-.511.077,1.639,1.639,0,0,1-.365-.041,1.988,1.988,0,0,0,1.815,1.515,3.633,3.633,0,0,1-2.412.934,3.512,3.512,0,0,1-.463-.032,5.01,5.01,0,0,0,2.972.986c3.575,0,5.529-3.324,5.529-6.208,0-.095,0-.189-.006-.281A4.256,4.256,0,0,0,10.876,5.524Z" transform="translate(2.981 16.678)" fill="#fff7f7"/>
        <path id="Icon_awesome-facebook" data-name="Icon awesome-facebook" d="M12.662,6.261a5.881,5.881,0,0,0-6.05-5.7,5.881,5.881,0,0,0-6.05,5.7,5.817,5.817,0,0,0,5.1,5.63V7.909H4.13V6.261H5.667V5.006A2.073,2.073,0,0,1,7.952,2.789,9.868,9.868,0,0,1,9.307,2.9V4.3H8.544c-.751,0-.986.439-.986.89v1.07H9.236L8.967,7.909H7.558v3.982A5.817,5.817,0,0,0,12.662,6.261Z" transform="translate(34.187 36.437)" fill="#ffeded"/>
      </g>
    </g>
  </g>
</svg>
